<?xml version="1.0" standalone="no"?>
<!DOCTYPE svg PUBLIC "-//W3C//DTD SVG 20010904//EN"
 "http://www.w3.org/TR/2001/REC-SVG-20010904/DTD/svg10.dtd">
<svg version="1.0" xmlns="http://www.w3.org/2000/svg"
 width="1696.000000pt" height="1696.000000pt" viewBox="0 0 1696.000000 1696.000000"
 preserveAspectRatio="xMidYMid meet">
<metadata>
Created by potrace 1.11, written by Peter Selinger 2001-2013
</metadata>
<g transform="translate(0.000000,1696.000000) scale(0.100000,-0.100000)"
fill="#000000" stroke="none">
<path d="M3461 12938 c-5 -13 -17 -43 -26 -68 -9 -25 -23 -59 -31 -77 -8 -17
-14 -38 -14 -46 0 -9 -4 -18 -9 -21 -5 -3 -11 -16 -15 -29 -3 -13 -13 -41 -22
-63 -10 -21 -19 -43 -20 -49 -5 -23 -146 -382 -159 -407 -8 -14 -15 -33 -15
-42 0 -9 -4 -24 -10 -34 -15 -28 -63 -156 -63 -169 0 -7 -4 -13 -9 -13 -4 0
-8 -6 -8 -12 0 -7 -25 -76 -56 -153 -30 -77 -80 -205 -110 -285 -30 -80 -60
-156 -66 -170 -7 -14 -12 -27 -13 -30 -1 -3 -5 -13 -9 -22 -4 -9 -9 -22 -10
-30 -2 -7 -8 -24 -14 -38 -5 -14 -27 -68 -47 -120 -90 -235 -126 -326 -135
-345 -5 -11 -18 -47 -30 -80 -12 -33 -25 -64 -30 -70 -5 -5 -8 -12 -8 -15 1
-8 -13 -53 -26 -85 -7 -16 -28 -68 -45 -115 -18 -47 -45 -114 -59 -150 -15
-36 -27 -68 -28 -72 -1 -5 -3 -10 -4 -13 -1 -3 -3 -8 -5 -12 -1 -5 -6 -19 -12
-33 -24 -57 -103 -261 -103 -266 0 -3 -6 -20 -14 -37 -8 -18 -33 -81 -56 -142
-22 -60 -47 -123 -55 -140 -7 -16 -17 -41 -21 -54 -3 -13 -13 -40 -22 -60 -9
-20 -16 -38 -17 -41 0 -5 -18 -50 -40 -105 -7 -16 -18 -46 -25 -65 -7 -19 -19
-48 -26 -65 -7 -16 -26 -67 -43 -113 -32 -85 -131 -340 -146 -377 -5 -11 -9
-22 -10 -25 -1 -3 -7 -18 -13 -33 -7 -16 -12 -34 -12 -42 0 -8 -4 -16 -9 -19
-5 -3 -12 -18 -16 -33 -3 -15 -15 -45 -24 -68 -10 -22 -28 -67 -40 -100 -12
-33 -26 -69 -31 -80 -5 -11 -23 -58 -41 -105 -58 -154 -100 -265 -113 -295 -7
-16 -23 -57 -36 -90 -12 -33 -28 -73 -35 -90 -7 -16 -18 -48 -25 -70 -7 -22
-16 -44 -20 -50 -4 -5 -13 -28 -20 -50 -7 -22 -18 -46 -24 -54 -6 -8 -10 -15
-8 -15 4 -1 -2 -18 -46 -131 -14 -38 -27 -72 -27 -75 0 -3 -7 -16 -15 -30 -7
-14 -13 -27 -13 -30 1 -3 -5 -20 -13 -39 -8 -18 -14 -39 -14 -47 0 -7 -4 -15
-9 -19 -5 -3 -13 -20 -17 -37 -3 -18 -10 -39 -15 -48 -16 -27 -69 -170 -69
-184 0 -8 -3 -16 -7 -18 -7 -2 -39 -82 -47 -113 -2 -5 -8 -21 -14 -35 -6 -14
-33 -83 -60 -155 -28 -71 -53 -139 -58 -150 -4 -11 -8 -22 -9 -25 -1 -3 -7
-18 -14 -35 -7 -16 -44 -113 -83 -215 -39 -102 -75 -189 -80 -194 -4 -6 -8
-16 -8 -24 0 -8 -6 -28 -14 -45 -15 -33 -90 -228 -91 -237 -1 -3 -9 -22 -18
-44 -9 -21 -17 -44 -17 -50 0 -7 -4 -16 -8 -22 -5 -5 -53 -126 -107 -269 -55
-143 -102 -262 -105 -265 -3 -3 -6 -12 -8 -21 -1 -9 -20 -61 -42 -115 -23 -55
-41 -101 -42 -104 -2 -10 -11 -37 -33 -90 -12 -30 -37 -93 -55 -140 -17 -47
-36 -93 -41 -102 -5 -10 -9 -25 -9 -33 0 -8 -5 -15 -12 -15 -6 0 -9 -3 -5 -6
6 -6 -18 -74 -48 -141 -8 -17 -15 -38 -15 -46 0 -9 -4 -19 -10 -22 -5 -3 -10
-11 -10 -16 0 -10 1724 -8 1770 3 14 3 45 11 70 18 25 7 51 14 58 16 23 4 141
73 174 101 130 112 193 201 243 347 17 51 34 97 38 103 3 5 8 21 11 35 2 15 9
35 14 45 6 10 10 20 10 23 0 3 5 17 11 33 6 15 13 38 15 51 2 14 9 33 15 44 5
10 12 30 15 43 3 13 33 103 66 199 34 96 63 182 65 191 2 8 10 32 19 52 8 21
15 40 16 42 0 3 0 6 1 8 0 1 2 9 4 17 2 8 20 60 39 114 20 54 33 102 31 107
-3 4 -1 9 5 11 6 2 12 12 14 24 5 23 53 168 66 199 7 16 30 85 35 105 4 12 17
46 24 60 7 13 220 14 1700 15 931 0 1697 -3 1703 -6 8 -5 99 -253 113 -309 4
-17 163 -487 172 -510 4 -8 7 -17 8 -20 10 -34 40 -121 125 -370 55 -162 102
-302 104 -310 2 -8 9 -28 16 -45 6 -16 11 -31 10 -33 0 -2 16 -32 61 -113 17
-30 165 -179 178 -179 6 0 30 -13 54 -30 25 -16 52 -30 60 -30 9 0 19 -5 22
-10 3 -6 16 -10 29 -10 12 0 27 -5 34 -12 7 -7 12 -9 12 -6 0 3 28 0 63 -8 48
-10 250 -13 918 -14 l857 0 -12 35 c-7 19 -15 38 -19 41 -4 4 -7 14 -7 21 0 8
-9 33 -20 55 -11 23 -20 47 -20 53 0 6 -9 30 -20 53 -11 22 -20 46 -20 52 0 5
-9 29 -19 53 -26 56 -92 227 -96 251 -3 10 -10 25 -17 34 -7 8 -12 18 -10 21
1 3 -4 22 -12 41 -8 19 -31 78 -51 130 -20 52 -41 104 -45 115 -5 11 -27 67
-49 125 -43 115 -123 320 -226 585 -37 94 -68 177 -70 186 -2 9 -8 25 -13 35
-6 11 -29 69 -52 129 -23 61 -45 119 -50 130 -18 40 -134 341 -151 391 -9 28
-24 65 -33 83 -9 17 -16 32 -15 33 0 2 -5 17 -11 33 -7 17 -25 64 -40 105 -15
41 -34 89 -41 105 -7 17 -13 32 -14 35 -2 12 -46 127 -55 145 -14 31 -100 253
-121 315 -11 30 -23 64 -29 75 -10 20 -32 76 -34 85 -2 7 -57 150 -71 185 -39
94 -135 343 -139 360 -2 6 -7 21 -13 35 -6 14 -19 45 -28 70 -28 74 -32 83
-48 120 -12 29 -27 70 -32 90 -1 3 -7 19 -14 35 -15 34 -55 138 -56 145 -3 11
-29 76 -59 143 -9 21 -14 42 -11 47 3 4 0 10 -5 12 -6 2 -12 10 -14 18 -1 8
-10 32 -19 54 -9 21 -17 44 -17 52 0 7 -4 15 -9 19 -5 3 -13 20 -16 38 -4 17
-13 43 -21 57 -7 14 -29 68 -48 120 -39 106 -142 374 -156 405 -22 51 -102
265 -99 267 1 2 -4 14 -11 28 -8 14 -15 27 -15 30 -1 3 -7 19 -14 35 -6 17
-16 44 -22 60 -6 17 -20 49 -30 72 -11 24 -19 47 -19 53 0 6 -4 18 -10 28 -5
9 -28 67 -51 127 -22 61 -48 125 -56 144 -8 18 -16 39 -17 45 -1 6 -10 28 -19
50 -9 21 -17 40 -17 42 0 4 -86 229 -99 259 -19 44 -63 161 -65 173 -1 7 -8
18 -14 24 -7 7 -12 20 -12 30 0 9 -11 42 -25 72 -14 30 -25 59 -25 64 0 5 -8
29 -19 53 -17 42 -32 78 -36 89 -1 3 -5 14 -10 25 -4 11 -33 88 -65 170 -172
445 -202 522 -210 540 -5 11 -26 67 -48 125 -22 58 -57 148 -77 200 -60 156
-81 208 -135 350 -28 74 -56 144 -61 155 -5 11 -15 38 -22 60 l-14 40 -1067 3
-1066 2 -9 -22z m1097 -1908 c3 -8 6 -20 7 -26 7 -31 181 -585 195 -619 12
-31 44 -119 46 -127 1 -5 2 -9 4 -10 1 -2 3 -11 5 -21 2 -10 7 -26 11 -35 4
-9 8 -19 9 -22 0 -3 14 -43 30 -90 16 -47 30 -87 30 -90 1 -3 5 -13 9 -22 4
-9 9 -22 10 -30 2 -7 6 -20 9 -28 10 -24 129 -381 132 -394 2 -11 5 -20 21
-61 4 -11 8 -23 9 -27 2 -5 4 -10 5 -13 1 -3 4 -9 5 -15 1 -5 3 -11 5 -12 1
-2 3 -10 5 -18 6 -30 73 -222 79 -227 3 -4 6 -15 6 -25 0 -10 4 -26 9 -36 5
-9 33 -89 61 -177 29 -88 56 -168 61 -177 5 -10 9 -26 9 -36 0 -10 4 -22 8
-28 10 -11 57 -156 54 -166 -1 -5 2 -8 6 -8 5 0 9 -6 9 -12 0 -14 57 -189 72
-223 5 -11 30 -85 55 -165 26 -80 50 -152 53 -160 4 -8 7 -17 8 -20 5 -20 78
-239 85 -255 10 -24 64 -187 65 -197 0 -3 3 -9 7 -13 13 -14 -3 -35 -20 -26
-10 4 -28 5 -42 1 -14 -4 -36 -4 -50 0 -14 4 -36 4 -50 0 -14 -4 -37 -3 -52 1
-15 4 -30 3 -33 -2 -4 -5 -14 -5 -25 1 -10 6 -21 6 -24 2 -5 -9 -86 -6 -94 3
-3 3 -11 0 -18 -6 -8 -7 -14 -7 -19 1 -4 6 -13 7 -23 1 -9 -4 -26 -7 -37 -5
-23 4 -36 5 -118 4 -33 0 -63 2 -67 5 -5 3 -11 2 -13 -2 -3 -5 -58 -6 -122 -3
-64 3 -118 3 -120 0 -2 -3 -56 -3 -120 0 -64 3 -118 3 -120 1 -6 -6 -115 -4
-121 2 -3 3 -19 1 -35 -3 -17 -5 -31 -5 -35 1 -3 6 -11 6 -17 1 -11 -7 -26 -8
-42 -3 -10 4 -146 3 -150 0 -2 -2 -56 -2 -120 1 -64 3 -118 3 -120 1 -6 -6
-177 -3 -183 3 -3 3 -11 1 -18 -5 -8 -7 -14 -7 -19 1 -4 6 -13 7 -23 1 -9 -4
-26 -7 -37 -5 -23 4 -37 5 -127 5 -38 0 -74 0 -80 0 -7 0 -41 -1 -75 -2 -35
-1 -63 1 -63 4 -2 20 13 78 21 83 5 3 9 14 9 25 0 10 4 27 9 37 6 9 22 55 36
102 15 47 30 94 35 105 7 16 51 147 55 165 1 3 4 12 7 20 24 63 40 113 43 128
2 9 4 17 4 17 1 0 17 44 35 98 19 53 32 97 30 97 -3 0 2 12 9 28 8 15 49 133
91 262 43 129 81 242 85 250 5 8 16 42 26 75 10 33 19 62 20 65 1 3 5 12 8 20
16 38 100 296 100 308 0 6 4 12 9 12 4 0 8 9 8 20 0 12 7 34 15 50 9 17 15 31
15 32 -1 2 1 10 4 18 96 294 118 357 123 370 3 8 7 20 8 25 2 6 15 42 30 80
15 39 42 115 61 170 19 55 39 109 44 120 5 11 25 72 45 135 20 63 43 130 51
148 8 18 14 41 14 52 0 10 5 22 10 25 6 4 10 12 9 18 -2 13 11 66 20 82 3 6 6
15 7 20 3 15 55 198 61 215 7 17 9 23 17 60 3 14 13 54 23 89 l18 64 9 -34 c4
-19 11 -41 14 -49z"/>
<path d="M14149 12958 c-1 -2 -2 -2020 -3 -4486 l-1 -4482 354 2 355 3 1 4483
0 4482 -352 0 c-194 0 -354 -1 -354 -2z"/>
<path d="M15638 12955 c-3 -3 -2 -22 1 -43 4 -20 4 -53 1 -72 -3 -19 -3 -50 1
-67 4 -18 3 -33 -1 -33 -4 0 -5 -12 -3 -27 2 -16 4 -34 4 -40 0 -7 0 -38 0
-68 0 -30 0 -63 0 -72 0 -10 0 -58 0 -108 0 -49 0 -97 0 -105 -3 -79 -2 -141
2 -147 3 -5 2 -26 -2 -48 -4 -22 -4 -55 0 -72 3 -18 3 -33 -1 -33 -4 0 -5 -12
-3 -27 2 -16 4 -35 4 -43 0 -8 -1 -46 -1 -83 0 -37 2 -72 5 -78 4 -5 2 -9 -3
-9 -5 0 -7 -12 -5 -27 2 -16 4 -34 4 -40 0 -7 0 -38 0 -68 0 -30 0 -63 0 -72
0 -10 0 -58 0 -108 0 -49 0 -97 0 -105 -3 -79 -2 -141 2 -147 3 -5 2 -26 -2
-48 -4 -22 -4 -55 0 -72 3 -18 3 -33 -1 -33 -4 0 -5 -12 -3 -27 2 -16 4 -35 4
-43 0 -8 -1 -46 -1 -83 0 -37 2 -72 5 -78 4 -5 2 -9 -3 -9 -5 0 -7 -12 -5 -27
2 -16 4 -34 4 -40 0 -7 0 -38 0 -68 0 -30 0 -63 0 -72 0 -10 0 -58 0 -108 0
-49 0 -97 0 -105 -3 -79 -2 -141 2 -147 3 -5 2 -26 -2 -48 -4 -22 -4 -55 0
-72 3 -18 3 -33 -1 -33 -4 0 -5 -12 -3 -27 2 -16 4 -35 4 -43 0 -8 -1 -46 -1
-83 0 -37 2 -72 5 -78 4 -5 2 -9 -3 -9 -5 0 -7 -12 -5 -27 2 -16 4 -34 4 -40
0 -7 0 -38 0 -68 0 -30 0 -63 0 -72 0 -10 0 -58 0 -108 0 -49 0 -97 0 -105 -3
-79 -2 -141 2 -147 3 -5 2 -26 -2 -48 -4 -22 -4 -55 0 -72 3 -18 3 -33 -1 -33
-4 0 -5 -12 -3 -27 2 -16 4 -35 4 -43 0 -8 -1 -46 -1 -83 0 -37 2 -72 5 -78 4
-5 2 -9 -3 -9 -5 0 -7 -12 -5 -27 2 -16 4 -34 4 -40 0 -7 0 -38 0 -68 0 -30 0
-63 0 -72 0 -10 0 -58 0 -108 0 -49 0 -97 0 -105 -3 -79 -2 -141 2 -147 3 -5
2 -26 -2 -48 -4 -22 -4 -55 0 -72 3 -18 3 -33 -1 -33 -4 0 -5 -12 -3 -27 2
-16 4 -35 4 -43 0 -8 -1 -46 -1 -83 0 -37 2 -72 5 -78 4 -5 2 -9 -3 -9 -5 0
-7 -12 -5 -27 2 -16 4 -34 4 -40 0 -7 0 -38 0 -68 0 -30 0 -63 0 -72 0 -10 0
-58 0 -108 0 -49 0 -97 0 -105 -3 -79 -2 -141 2 -147 3 -5 2 -26 -2 -48 -4
-22 -4 -55 0 -72 3 -18 3 -33 -1 -33 -4 0 -5 -12 -3 -27 2 -16 4 -35 4 -43 0
-8 -1 -46 -1 -83 0 -37 2 -72 5 -78 4 -5 2 -9 -3 -9 -5 0 -7 -12 -5 -27 2 -16
4 -34 4 -40 0 -7 0 -38 0 -68 0 -30 0 -62 -1 -70 -1 -39 -1 -90 0 -141 1 -31
-1 -58 -3 -61 -3 -2 -1 -18 3 -34 5 -16 5 -31 1 -33 -4 -3 -6 -22 -3 -43 2
-21 3 -44 3 -50 -2 -27 -2 -45 -1 -99 1 -31 -1 -58 -3 -60 -3 -3 -1 -21 3 -40
4 -18 5 -34 1 -34 -3 0 -5 -30 -4 -67 5 -119 5 -175 0 -180 -3 -2 -1 -18 3
-34 5 -16 5 -31 1 -33 -4 -3 -6 -22 -3 -43 2 -21 3 -44 3 -50 -2 -27 -2 -45
-1 -99 1 -31 -1 -58 -3 -60 -3 -3 -1 -21 3 -40 4 -18 5 -34 1 -34 -3 0 -5 -30
-4 -67 5 -119 5 -175 0 -180 -3 -2 -1 -18 3 -34 5 -16 5 -31 1 -33 -4 -3 -6
-22 -3 -43 2 -21 3 -44 3 -50 -2 -27 -2 -45 -1 -99 1 -31 -1 -58 -3 -60 -3 -3
-1 -21 3 -40 4 -18 5 -34 1 -34 -3 0 -5 -30 -4 -67 5 -119 5 -175 0 -180 -3
-2 -1 -18 3 -34 5 -16 5 -31 1 -33 -4 -3 -6 -22 -3 -43 2 -21 3 -44 3 -50 -2
-27 -2 -45 -1 -99 1 -31 -1 -58 -3 -60 -3 -3 -1 -21 3 -40 4 -18 5 -34 1 -34
-3 0 -5 -30 -4 -67 4 -108 5 -168 1 -183 -3 -13 84 -15 660 -18 l662 -2 0
4485 0 4485 -658 0 c-362 0 -661 -2 -664 -5z"/>
<path d="M11149 11506 c-2 -2 -28 -7 -58 -11 -30 -4 -65 -11 -78 -16 -13 -5
-23 -6 -23 -3 0 2 -9 0 -21 -6 -11 -7 -32 -14 -46 -16 -14 -3 -39 -12 -54 -20
-16 -8 -29 -12 -29 -8 0 4 -6 2 -12 -4 -7 -5 -49 -29 -92 -51 -44 -23 -82 -45
-85 -49 -4 -4 -28 -22 -55 -41 -82 -57 -256 -240 -256 -270 0 -6 -4 -11 -10
-11 -5 0 -12 -11 -16 -25 -3 -14 -11 -29 -18 -33 -34 -21 -119 -246 -143 -377
-9 -51 -10 -288 -1 -340 16 -91 21 -113 39 -170 11 -33 23 -67 26 -75 3 -8 7
-17 8 -20 5 -20 60 -126 67 -128 4 -2 6 -8 2 -13 -3 -5 -1 -9 4 -9 5 0 15 -12
21 -27 6 -16 25 -44 41 -63 103 -122 157 -179 167 -179 7 -1 16 -7 20 -14 8
-13 102 -83 138 -103 107 -60 147 -78 224 -104 49 -16 100 -31 113 -34 12 -2
34 -7 48 -10 51 -12 244 -24 270 -16 3 0 30 3 60 6 54 4 72 7 118 18 12 4 30
8 40 10 55 13 78 19 87 25 6 3 15 6 20 7 15 2 101 40 150 66 89 47 182 116
259 192 94 94 109 112 156 186 19 30 37 57 40 60 7 6 85 185 94 217 4 12 9 30
11 40 2 10 9 36 15 58 23 91 32 276 19 370 -11 78 -21 129 -25 136 -2 3 -6 21
-9 39 -3 19 -10 39 -15 46 -6 6 -7 14 -3 17 3 4 1 7 -6 7 -7 0 -10 4 -7 8 6
11 -92 212 -104 212 -4 0 -11 11 -14 25 -4 14 -11 25 -16 25 -5 0 -16 12 -24
28 -27 51 -172 189 -271 258 -48 34 -155 89 -225 117 -123 48 -234 69 -391 73
-80 2 -147 2 -150 0z"/>
<path d="M11100 7495 c-41 -7 -76 -13 -77 -14 -5 -3 -61 -20 -123 -36 -3 -1
-22 -9 -44 -18 -21 -9 -44 -17 -51 -17 -8 0 -15 -3 -17 -7 -1 -5 -28 -21 -58
-37 -120 -64 -271 -193 -350 -299 -19 -26 -43 -57 -53 -70 -26 -30 -127 -237
-127 -259 0 -9 -5 -20 -11 -23 -5 -4 -8 -12 -6 -18 2 -7 0 -21 -6 -31 -5 -11
-11 -31 -12 -45 -2 -14 -7 -44 -12 -66 -9 -45 -10 -277 0 -345 3 -25 12 -66
20 -92 8 -27 13 -48 11 -48 -2 0 5 -20 16 -44 10 -24 16 -47 13 -50 -4 -3 -1
-6 5 -6 7 0 12 -7 12 -15 0 -18 79 -169 91 -173 5 -2 9 -9 9 -15 0 -7 10 -24
23 -39 12 -14 36 -43 53 -65 142 -172 370 -318 574 -368 135 -32 182 -38 300
-37 86 2 175 8 175 12 0 1 14 4 30 5 36 4 168 41 210 60 48 21 69 28 78 27 4
-1 7 2 7 8 0 5 5 10 12 10 13 0 155 87 176 107 8 7 30 26 49 41 42 31 104 93
130 129 10 14 31 38 46 54 15 15 27 31 27 34 0 3 15 29 33 58 55 86 121 254
142 362 19 98 25 261 13 357 -9 66 -39 201 -48 213 -4 6 -13 28 -20 50 -26 79
-106 215 -185 313 -25 32 -105 109 -158 153 -83 70 -277 179 -342 194 -5 1
-17 5 -25 8 -20 8 -99 28 -130 33 -14 2 -36 7 -50 10 -46 12 -274 11 -350 -1z"/>
</g>
</svg>
