<?xml version="1.0" encoding="UTF-8" standalone="no"?>
<!-- Created with Inkscape (http://www.inkscape.org/) -->

<svg
   xmlns:dc="http://purl.org/dc/elements/1.1/"
   xmlns:cc="http://creativecommons.org/ns#"
   xmlns:rdf="http://www.w3.org/1999/02/22-rdf-syntax-ns#"
   xmlns:svg="http://www.w3.org/2000/svg"
   xmlns="http://www.w3.org/2000/svg"
   xmlns:sodipodi="http://sodipodi.sourceforge.net/DTD/sodipodi-0.dtd"
   xmlns:inkscape="http://www.inkscape.org/namespaces/inkscape"
   version="1.1"
   id="svg29"
   xml:space="preserve"
   width="106.34575"
   height="56.212738"
   viewBox="0 0 106.34575 56.212738"
   sodipodi:docname="favicon.svg"
   inkscape:version="0.92.5 (2060ec1f9f, 2020-04-08)"><metadata
     id="metadata35"><rdf:RDF><cc:Work
         rdf:about=""><dc:format>image/svg+xml</dc:format><dc:type
           rdf:resource="http://purl.org/dc/dcmitype/StillImage" /><dc:title></dc:title></cc:Work></rdf:RDF></metadata><defs
     id="defs33"><clipPath
       clipPathUnits="userSpaceOnUse"
       id="clipPath45"><path
         d="M 0,50.13 H 415.214 V 0 H 0 Z"
         id="path43"
         inkscape:connector-curvature="0" /></clipPath></defs><sodipodi:namedview
     pagecolor="#ffffff"
     bordercolor="#666666"
     borderopacity="1"
     objecttolerance="10"
     gridtolerance="10"
     guidetolerance="10"
     inkscape:pageopacity="0"
     inkscape:pageshadow="2"
     inkscape:window-width="1920"
     inkscape:window-height="996"
     id="namedview31"
     showgrid="false"
     inkscape:zoom="1.608508"
     inkscape:cx="119.19534"
     inkscape:cy="-39.776447"
     inkscape:window-x="0"
     inkscape:window-y="28"
     inkscape:window-maximized="1"
     inkscape:current-layer="g37"
     fit-margin-top="0"
     fit-margin-left="0"
     fit-margin-right="0"
     fit-margin-bottom="0" /><g
     id="g37"
     inkscape:groupmode="layer"
     inkscape:label="Audimus - Web"
     transform="matrix(1.3333333,0,0,-1.3333333,-172.00038,63.40791)"><g
       id="g102"
       transform="matrix(1.0620894,0,0,1.0620894,-8.0095556,-0.3350581)"><g
         transform="matrix(0.8092367,0,0,0.8092367,143.65719,20.571428)"
         id="g47"><path
           inkscape:connector-curvature="0"
           id="path49"
           style="fill:#000000;fill-opacity:1;fill-rule:nonzero;stroke:none"
           d="M 0,0 H 13.399 L 8.888,13.433 C 8.596,14.286 8.254,15.29 7.861,16.446 7.468,17.602 7.081,18.854 6.7,20.2 6.34,18.831 5.97,17.562 5.589,16.396 5.207,15.229 4.848,14.219 4.512,13.365 Z m 31.512,-18.752 h -8.821 c -0.987,0 -1.801,0.23 -2.441,0.69 -0.639,0.46 -1.083,1.049 -1.329,1.768 l -2.896,8.551 H -2.626 l -2.895,-8.551 c -0.225,-0.629 -0.663,-1.195 -1.313,-1.7 -0.651,-0.505 -1.448,-0.758 -2.391,-0.758 h -8.887 L 0.875,30.3 h 11.649 z" /></g><g
         transform="matrix(0.8092367,0,0,0.8092367,-131.9095,4.9601999)"
         id="g75"><path
           d="m 407.99,49.591 h 7.224 V 0.539 h -7.224 z"
           style="fill:#000000;fill-opacity:1;fill-rule:nonzero;stroke:none"
           id="path73"
           inkscape:connector-curvature="0" /><path
           d="m 399.808,49.591 h 3.881 V 0.539 h -3.881 z"
           style="fill:#000000;fill-opacity:1;fill-rule:nonzero;stroke:none"
           id="path75"
           inkscape:connector-curvature="0" /><g
           id="g77"
           transform="translate(384.0898,7.4602)"><path
             d="m 0,0 c -3.367,0 -6.195,2.761 -6.195,6.194 0,3.3 2.828,6.128 6.195,6.128 3.502,0 6.263,-2.828 6.263,-6.128 C 6.263,2.761 3.502,0 0,0 m 0,21.884 c -3.367,0 -6.195,2.761 -6.195,6.195 0,3.3 2.828,6.128 6.195,6.128 3.502,0 6.263,-2.828 6.263,-6.128 0,-3.434 -2.761,-6.195 -6.263,-6.195"
             style="fill:#000000;fill-opacity:1;fill-rule:nonzero;stroke:none"
             id="path79"
             inkscape:connector-curvature="0" /></g></g></g></g></svg>