<?xml version="1.0" encoding="UTF-8" standalone="no"?>
<!-- Created with Inkscape (http://www.inkscape.org/) -->

<svg
   xmlns:dc="http://purl.org/dc/elements/1.1/"
   xmlns:cc="http://creativecommons.org/ns#"
   xmlns:rdf="http://www.w3.org/1999/02/22-rdf-syntax-ns#"
   xmlns:svg="http://www.w3.org/2000/svg"
   xmlns="http://www.w3.org/2000/svg"
   xmlns:sodipodi="http://sodipodi.sourceforge.net/DTD/sodipodi-0.dtd"
   xmlns:inkscape="http://www.inkscape.org/namespaces/inkscape"
   version="1.1"
   id="svg29"
   xml:space="preserve"
   width="687.87305"
   height="196.53516"
   viewBox="0 0 687.87304 196.53516"
   sodipodi:docname="logo_inverted.svg"
   inkscape:version="0.92.5 (2060ec1f9f, 2020-04-08)"><metadata
     id="metadata35"><rdf:RDF><cc:Work
         rdf:about=""><dc:format>image/svg+xml</dc:format><dc:type
           rdf:resource="http://purl.org/dc/dcmitype/StillImage" /><dc:title></dc:title></cc:Work></rdf:RDF></metadata><defs
     id="defs33"><clipPath
       clipPathUnits="userSpaceOnUse"
       id="clipPath45"><path
         d="M 0,50.13 H 415.214 V 0 H 0 Z"
         id="path43"
         inkscape:connector-curvature="0" /></clipPath></defs><sodipodi:namedview
     pagecolor="#ffffff"
     bordercolor="#666666"
     borderopacity="1"
     objecttolerance="10"
     gridtolerance="10"
     guidetolerance="10"
     inkscape:pageopacity="0"
     inkscape:pageshadow="2"
     inkscape:window-width="1920"
     inkscape:window-height="996"
     id="namedview31"
     showgrid="false"
     inkscape:zoom="1.1373869"
     inkscape:cx="249.39364"
     inkscape:cy="109.5956"
     inkscape:window-x="0"
     inkscape:window-y="28"
     inkscape:window-maximized="1"
     inkscape:current-layer="g37"
     fit-margin-top="0"
     fit-margin-left="0"
     fit-margin-right="0"
     fit-margin-bottom="0" /><g
     id="g37"
     inkscape:groupmode="layer"
     inkscape:label="Audimus - Web"
     transform="matrix(1.3333333,0,0,-1.3333333,67.126953,131.68752)"><path
       style="fill:#000000;stroke:none;stroke-width:2.46169901"
       d="M -67.126953,-64.847656 V 131.6875 H 620.74609 V -64.847656 Z M 453.2832,0 c 2.00534,0 3.95938,0.15603647 5.85938,0.47070312 1.90133,0.31466666 3.70349,0.77924478 5.41015,1.39257808 1.70534,0.6133334 3.29663,1.3458855 4.7793,2.1992188 1.48133,0.8533333 2.80599,1.8191511 3.97266,2.8964844 l -3.77149,7.0468746 c -0.44933,0.718667 -0.91939,1.256568 -1.41406,1.615235 -0.49333,0.358666 -1.12892,0.539062 -1.90625,0.539062 -0.68933,0 -1.43066,-0.215724 -2.22266,-0.65039 -0.79466,-0.433334 -1.69069,-0.920318 -2.69335,-1.458985 -1.00267,-0.538666 -2.14693,-1.024937 -3.4336,-1.460937 -1.288,-0.432 -2.75372,-0.648438 -4.40039,-0.648438 -2.84267,0 -4.95761,0.604407 -6.34961,1.816406 -1.39067,1.213334 -2.08789,2.850683 -2.08789,4.916016 0,1.316 0.41853,2.410677 1.25586,3.277344 0.83733,0.868 1.93749,1.614807 3.29883,2.24414 1.36266,0.628 2.91925,1.20523 4.66992,1.726563 1.75067,0.525333 3.53661,1.109286 5.36328,1.751953 1.82533,0.642667 3.6159,1.400912 5.36524,2.267578 1.75066,0.869334 3.30663,1.974979 4.66796,3.320313 1.36134,1.346666 2.4615,2.985349 3.29883,4.916015 0.83734,1.929334 1.25781,4.257803 1.25781,6.980469 0,3.022667 -0.52559,5.851042 -1.57226,8.484375 -1.048,2.633333 -2.56731,4.930625 -4.55664,6.890625 -1.99067,1.958667 -4.444,3.50038 -7.36133,4.623047 -2.91867,1.122667 -6.23207,1.683594 -9.94141,1.683594 -2.036,0 -4.10746,-0.208907 -6.21679,-0.628906 -2.10934,-0.418667 -4.15424,-1.010771 -6.12891,-1.773438 -1.97467,-0.762667 -3.82979,-1.668177 -5.56445,-2.714844 -1.73734,-1.048 -3.24654,-2.215286 -4.53321,-3.501953 l 4.48633,-7.091797 c 0.32934,-0.54 0.79391,-0.973401 1.39258,-1.302734 0.59733,-0.329333 1.24169,-0.494141 1.92969,-0.494141 0.89867,0 1.80284,0.284183 2.71484,0.853516 0.91334,0.568 1.94628,1.197385 3.09961,1.886719 1.15067,0.688 2.47532,1.315432 3.97266,1.884765 1.496,0.569334 3.25954,0.853516 5.29687,0.853516 2.752,0 4.89264,-0.608313 6.41797,-1.820313 1.528,-1.210666 2.28906,-3.132911 2.28906,-5.767578 0,-1.525333 -0.41852,-2.767896 -1.25585,-3.726562 -0.83734,-0.957334 -1.93883,-1.74762 -3.29883,-2.376953 -1.364,-0.629334 -2.91182,-1.183443 -4.64649,-1.66211 -1.736,-0.478666 -3.51646,-1.00913 -5.34179,-1.591797 -1.82534,-0.585333 -3.60775,-1.302916 -5.34375,-2.15625 -1.736,-0.852 -3.28382,-1.975187 -4.64649,-3.367187 -1.36133,-1.390667 -2.46016,-3.127031 -3.29883,-5.207031 -0.83733,-2.08 -1.25586,-4.645266 -1.25586,-7.697266 0,-2.453333 0.49443,-4.848307 1.48243,-7.181641 0.98666,-2.3346662 2.43884,-4.4149007 4.35351,-6.240234 1.91467,-1.8253333 4.26421,-3.2849532 7.04688,-4.3769531 C 446.50532,0.54533857 449.69254,0 453.2832,0 Z M 25.316406,0.71875 h 15.53125 l 25.31836,65.402344 H 54.404297 c -1.316,0 -2.400573,-0.306589 -3.253906,-0.919922 -0.852,-0.613333 -1.445438,-1.398755 -1.773438,-2.357422 L 45.515625,51.441406 H 20.648438 L 16.789062,62.84375 c -0.299999,0.838667 -0.885286,1.592292 -1.751953,2.265625 -0.868,0.673333 -1.930166,1.011719 -3.1875,1.011719 H 0 Z m 51.982422,0 h 15.171875 v 38.693359 c 0,2.305334 0.292333,4.362542 0.875,6.171875 0.584,1.810667 1.42911,3.353 2.537109,4.625 1.106667,1.272 2.459834,2.242683 4.0625,2.916016 1.599998,0.673333 3.418458,1.011719 5.453128,1.011719 2.03466,0 3.85312,-0.338386 5.45312,-1.011719 1.60134,-0.673333 2.95779,-1.635865 4.06446,-2.894531 1.10666,-1.256 1.95311,-2.790896 2.5371,-4.601563 0.58267,-1.810666 0.87305,-3.866541 0.87305,-6.171875 V 0.71875 H 133.5 v 38.738281 c 0,4.010667 -0.65179,7.692302 -1.95312,11.042969 -1.30267,3.352 -3.16585,6.238729 -5.58985,8.664062 -2.424,2.422667 -5.37113,4.307631 -8.8418,5.654297 -3.472,1.345334 -7.37813,2.021485 -11.71679,2.021485 -4.36934,0 -8.287768,-0.676151 -11.759768,-2.021485 -3.470667,-1.346666 -6.41975,-3.23163 -8.84375,-5.654297 -2.424,-2.425333 -4.27912,-5.312062 -5.564453,-8.664062 -1.288,-3.350667 -1.931641,-7.032302 -1.931641,-11.042969 z m 75.054692,0 h 25.40625 c 5.08666,0 9.71853,0.8220834 13.89453,2.46875 4.17466,1.6453333 7.74241,3.919599 10.70508,6.822266 2.96266,2.904 5.25862,6.351656 6.89062,10.347656 1.63067,3.994666 2.44531,8.341729 2.44531,13.039062 0,4.729334 -0.81464,9.089938 -2.44531,13.085938 -1.632,3.996 -3.92796,7.450474 -6.89062,10.36914 -2.96267,2.917334 -6.53042,5.191599 -10.70508,6.822266 -4.176,1.632 -8.80787,2.447266 -13.89453,2.447266 h -25.40625 z m 76.9375,0 h 15.26171 v 65.402344 h -15.26171 z m 128.73828,0 h 15.17382 v 38.693359 c 0,2.305334 0.29101,4.362542 0.875,6.171875 0.58267,1.810667 1.42716,3.353 2.53516,4.625 1.10667,1.272 2.46312,2.242683 4.06445,2.916016 1.6,0.673333 3.41846,1.011719 5.45313,1.011719 2.03467,0 3.85179,-0.338386 5.45312,-1.011719 1.6,-0.673333 2.95779,-1.635865 4.06446,-2.894531 1.10666,-1.256 1.95249,-2.790896 2.53515,-4.601563 0.584,-1.810666 0.875,-3.866541 0.875,-6.171875 V 0.71875 h 15.17188 v 38.738281 c 0,4.010667 -0.65046,7.692302 -1.95313,11.042969 -1.30133,3.352 -3.16522,6.238729 -5.58789,8.664062 -2.424,2.422667 -5.37175,4.307631 -8.84375,5.654297 -3.47066,1.345334 -7.37484,2.021485 -11.71484,2.021485 -4.36933,0 -8.2891,-0.676151 -11.75977,-2.021485 -3.472,-1.346666 -6.4217,-3.23163 -8.8457,-5.654297 -2.424,-2.425333 -4.27779,-5.312062 -5.56445,-8.664062 -1.288,-3.350667 -1.93164,-7.032302 -1.93164,-11.042969 z m 175.04882,0 h 5.17383 v 65.402344 h -5.17383 z m 10.90821,0 h 9.63281 v 65.402344 h -9.63281 z M 265.65039,0.7617187 h 11.58203 1.72656 c 0.49467,0 0.93684,0.0772292 1.32618,0.2265625 0.388,0.1506667 0.74002,0.3825989 1.05468,0.6972656 0.31334,0.3146667 0.61993,0.7548854 0.91993,1.3242188 L 299.0918,36.216797 c 0.59733,1.138667 1.17385,2.322781 1.72851,3.550781 0.55334,1.228 1.08442,2.487391 1.59375,3.775391 0.508,-1.318667 1.0459,-2.59975 1.61524,-3.84375 0.568,-1.242667 1.15133,-2.449188 1.75,-3.617188 L 322.57031,3.0097656 c 0.29734,-0.5693333 0.60526,-1.0095521 0.91992,-1.3242187 0.31334,-0.3146667 0.66536,-0.546599 1.05469,-0.69726565 0.388,-0.14933333 0.82955,-0.2265625 1.32422,-0.2265625 h 1.72656 11.58203 V 66.121094 H 325.80078 V 28.505859 c 0,-1.825333 0.0909,-3.802401 0.26953,-5.927734 l -17.32812,33.621094 c -0.53867,1.048 -1.26512,1.842192 -2.17578,2.380859 -0.91467,0.538667 -1.95248,0.808594 -3.11914,0.808594 h -2.06641 c -1.16667,0 -2.20581,-0.269927 -3.11914,-0.808594 -0.91333,-0.538667 -1.63774,-1.332859 -2.17774,-2.380859 L 278.66797,22.535156 c 0.11867,1.046667 0.2082,2.087141 0.26953,3.119141 0.0587,1.030667 0.0898,1.982229 0.0898,2.851562 V 66.121094 H 265.65039 Z M 512.11914,11.283203 c 4.66933,0 8.35156,3.771875 8.35156,8.171875 0,4.578667 -3.68223,8.259766 -8.35156,8.259766 -4.48933,0 -8.25977,-3.681099 -8.25976,-8.259766 0,-4.4 3.77043,-8.171875 8.25976,-8.171875 z m -344.50391,1.105469 v 42.060547 h 10.14454 c 2.90266,0 5.49095,-0.484318 7.76562,-1.458985 2.27467,-0.970666 4.19691,-2.361828 5.76758,-4.173828 1.57067,-1.809333 2.77595,-4.017094 3.61328,-6.621094 0.83867,-2.603999 1.25781,-5.536161 1.25781,-8.798828 0,-3.232 -0.41914,-6.149286 -1.25781,-8.751953 -0.83733,-2.605333 -2.04261,-4.810427 -3.61328,-6.621093 -1.57067,-1.810667 -3.49291,-3.201829 -5.76758,-4.173829 -2.27467,-0.973333 -4.86296,-1.460937 -7.76562,-1.460937 z M 33.083984,14.185547 c -0.48,1.825333 -0.974422,3.515646 -1.482422,5.070312 -0.509333,1.556 -0.987546,2.904302 -1.435546,4.042969 l -6.015625,17.81836 H 42.015625 L 36,23.207031 c -0.389333,-1.137333 -0.845141,-2.476245 -1.369141,-4.017578 -0.524,-1.541333 -1.038875,-3.20924 -1.546875,-5.003906 z M 512.11914,40.462891 c 4.66933,0 8.35156,3.771875 8.35156,8.171875 0,4.577333 -3.68223,8.257812 -8.35156,8.257812 -4.48933,0 -8.25977,-3.680479 -8.25976,-8.257812 0,-4.4 3.77043,-8.171875 8.25976,-8.171875 z"
       id="rect119"
       transform="matrix(0.75000002,0,0,-0.75000002,0,50.129902)"
       inkscape:connector-curvature="0" /></g></svg>