<?xml version="1.0" encoding="UTF-8" standalone="no"?>
<!-- Created with Inkscape (http://www.inkscape.org/) -->

<svg
   xmlns:dc="http://purl.org/dc/elements/1.1/"
   xmlns:cc="http://creativecommons.org/ns#"
   xmlns:rdf="http://www.w3.org/1999/02/22-rdf-syntax-ns#"
   xmlns:svg="http://www.w3.org/2000/svg"
   xmlns="http://www.w3.org/2000/svg"
   xmlns:sodipodi="http://sodipodi.sourceforge.net/DTD/sodipodi-0.dtd"
   xmlns:inkscape="http://www.inkscape.org/namespaces/inkscape"
   version="1.1"
   id="svg29"
   xml:space="preserve"
   width="553.61865"
   height="66.839867"
   viewBox="0 0 553.61865 66.839867"
   sodipodi:docname="logo_white.svg"
   inkscape:version="0.92.5 (2060ec1f9f, 2020-04-08)"><metadata
     id="metadata35"><rdf:RDF><cc:Work
         rdf:about=""><dc:format>image/svg+xml</dc:format><dc:type
           rdf:resource="http://purl.org/dc/dcmitype/StillImage" /><dc:title></dc:title></cc:Work></rdf:RDF></metadata><defs
     id="defs33"><clipPath
       clipPathUnits="userSpaceOnUse"
       id="clipPath45"><path
         d="M 0,50.13 H 415.214 V 0 H 0 Z"
         id="path43"
         inkscape:connector-curvature="0" /></clipPath></defs><sodipodi:namedview
     pagecolor="#ffffff"
     bordercolor="#666666"
     borderopacity="1"
     objecttolerance="10"
     gridtolerance="10"
     guidetolerance="10"
     inkscape:pageopacity="0"
     inkscape:pageshadow="2"
     inkscape:window-width="1920"
     inkscape:window-height="996"
     id="namedview31"
     showgrid="false"
     inkscape:zoom="3.2170159"
     inkscape:cx="276.80933"
     inkscape:cy="33.419933"
     inkscape:window-x="0"
     inkscape:window-y="28"
     inkscape:window-maximized="1"
     inkscape:current-layer="g37" /><g
     id="g37"
     inkscape:groupmode="layer"
     inkscape:label="Audimus - Web"
     transform="matrix(1.3333333,0,0,-1.3333333,0,66.839867)"><g
       id="g39"
       style="fill:#ffffff"><g
         id="g41"
         clip-path="url(#clipPath45)"
         style="fill:#ffffff"><g
           id="g47"
           transform="translate(18.1123,19.2913)"
           style="fill:#ffffff"><path
             d="M 0,0 H 13.399 L 8.888,13.433 C 8.596,14.286 8.254,15.29 7.861,16.446 7.468,17.602 7.081,18.854 6.7,20.2 6.34,18.831 5.97,17.562 5.589,16.396 5.207,15.229 4.848,14.219 4.512,13.365 Z m 31.512,-18.752 h -8.821 c -0.987,0 -1.801,0.23 -2.441,0.69 -0.639,0.46 -1.083,1.049 -1.329,1.768 l -2.896,8.551 H -2.626 l -2.895,-8.551 c -0.225,-0.629 -0.663,-1.195 -1.313,-1.7 -0.651,-0.505 -1.448,-0.758 -2.391,-0.758 h -8.887 L 0.875,30.3 h 11.649 z"
             style="fill:#ffffff;fill-opacity:1;fill-rule:nonzero;stroke:none"
             id="path49"
             inkscape:connector-curvature="0" /></g><g
           id="g51"
           transform="translate(79.0493,9.5276)"
           style="fill:#ffffff"><path
             d="M 0,0 C 1.526,0 2.89,0.253 4.09,0.758 5.291,1.263 6.307,1.986 7.137,2.93 7.967,3.872 8.602,5.022 9.04,6.38 9.477,7.738 9.696,9.281 9.696,11.01 V 40.063 H 21.075 V 11.01 C 21.075,8.002 20.587,5.241 19.611,2.728 18.634,0.214 17.237,-1.952 15.419,-3.771 13.601,-5.588 11.39,-7.002 8.787,-8.012 6.183,-9.021 3.254,-9.527 0,-9.527 c -3.277,0 -6.217,0.506 -8.821,1.515 -2.603,1.01 -4.814,2.424 -6.632,4.241 -1.818,1.819 -3.21,3.985 -4.174,6.499 -0.966,2.513 -1.448,5.274 -1.448,8.282 v 29.053 h 11.379 v -29.02 c 0,-1.729 0.219,-3.272 0.656,-4.629 C -8.602,5.056 -7.968,3.9 -7.137,2.946 -6.307,1.992 -5.292,1.263 -4.09,0.758 -2.89,0.253 -1.526,0 0,0"
             style="fill:#ffffff;fill-opacity:1;fill-rule:nonzero;stroke:none"
             id="path53"
             inkscape:connector-curvature="0" /></g><g
           id="g55"
           transform="translate(147.123,25.0823)"
           style="fill:#ffffff"><path
             d="m 0,0 c 0,2.424 -0.314,4.612 -0.943,6.564 -0.628,1.954 -1.532,3.608 -2.71,4.966 -1.178,1.358 -2.62,2.402 -4.326,3.131 -1.706,0.73 -3.647,1.095 -5.824,1.095 h -7.609 V -15.79 h 7.609 c 2.177,0 4.118,0.364 5.824,1.095 1.706,0.728 3.148,1.772 4.326,3.131 1.178,1.357 2.082,3.012 2.71,4.965 C -0.314,-4.646 0,-2.447 0,0 m 11.648,0 c 0,-3.547 -0.611,-6.817 -1.834,-9.814 -1.224,-2.997 -2.946,-5.588 -5.168,-7.777 -2.222,-2.188 -4.898,-3.894 -8.029,-5.117 -3.132,-1.224 -6.605,-1.835 -10.42,-1.835 h -19.055 v 49.052 h 19.055 c 3.815,0 7.288,-0.617 10.42,-1.852 3.131,-1.234 5.807,-2.94 8.029,-5.117 C 6.868,15.362 8.59,12.776 9.814,9.779 11.037,6.783 11.648,3.523 11.648,0"
             style="fill:#ffffff;fill-opacity:1;fill-rule:nonzero;stroke:none"
             id="path57"
             inkscape:connector-curvature="0" /></g><path
           d="m 183.415,0.539 h -11.447 v 49.052 h 11.447 z"
           style="fill:#ffffff;fill-opacity:1;fill-rule:nonzero;stroke:none"
           id="path59"
           inkscape:connector-curvature="0" /><g
           id="g61"
           transform="translate(225.6152,20.304)"
           style="fill:#ffffff"><path
             d="m 0,0 c 0.415,-0.921 0.813,-1.865 1.195,-2.831 0.381,0.989 0.785,1.949 1.212,2.882 0.426,0.932 0.864,1.837 1.313,2.713 l 12.592,24.804 c 0.223,0.427 0.454,0.758 0.69,0.994 0.235,0.236 0.499,0.41 0.791,0.523 0.291,0.112 0.622,0.169 0.993,0.169 h 1.296 8.686 V -19.765 H 18.735 V 8.447 c 0,1.369 0.068,2.851 0.202,4.445 L 5.942,-12.324 C 5.538,-13.11 4.993,-13.705 4.31,-14.109 3.624,-14.513 2.845,-14.715 1.97,-14.715 H 0.421 c -0.875,0 -1.655,0.202 -2.34,0.606 -0.685,0.404 -1.228,0.999 -1.633,1.785 l -13.062,25.249 c 0.089,-0.785 0.156,-1.566 0.202,-2.34 0.044,-0.773 0.067,-1.486 0.067,-2.138 v -28.212 h -10.033 v 49.019 h 8.687 1.295 c 0.371,0 0.702,-0.057 0.994,-0.169 0.291,-0.113 0.555,-0.287 0.791,-0.523 0.235,-0.236 0.465,-0.567 0.69,-0.994 L -1.296,2.663 C -0.848,1.809 -0.416,0.921 0,0"
             style="fill:#ffffff;fill-opacity:1;fill-rule:nonzero;stroke:none"
             id="path63"
             inkscape:connector-curvature="0" /></g><g
           id="g65"
           transform="translate(289.5977,9.5276)"
           style="fill:#ffffff"><path
             d="m 0,0 c 1.526,0 2.89,0.253 4.091,0.758 1.2,0.505 2.217,1.228 3.047,2.172 0.83,0.942 1.465,2.092 1.902,3.45 0.438,1.358 0.656,2.901 0.656,4.63 V 40.063 H 21.075 V 11.01 C 21.075,8.002 20.588,5.241 19.611,2.728 18.635,0.214 17.237,-1.952 15.42,-3.771 13.602,-5.588 11.391,-7.002 8.787,-8.012 6.184,-9.021 3.255,-9.527 0,-9.527 c -3.277,0 -6.217,0.506 -8.82,1.515 -2.604,1.01 -4.815,2.424 -6.633,4.241 -1.818,1.819 -3.209,3.985 -4.174,6.499 -0.966,2.513 -1.448,5.274 -1.448,8.282 v 29.053 h 11.38 v -29.02 c 0,-1.729 0.218,-3.272 0.656,-4.629 C -8.602,5.056 -7.968,3.9 -7.137,2.946 -6.307,1.992 -5.291,1.263 -4.09,0.758 -2.89,0.253 -1.526,0 0,0"
             style="fill:#ffffff;fill-opacity:1;fill-rule:nonzero;stroke:none"
             id="path67"
             inkscape:connector-curvature="0" /></g><g
           id="g69"
           transform="translate(352.1504,39.6262)"
           style="fill:#ffffff"><path
             d="m 0,0 c -0.337,-0.539 -0.69,-0.943 -1.061,-1.212 -0.37,-0.269 -0.847,-0.404 -1.43,-0.404 -0.517,0 -1.072,0.162 -1.666,0.488 -0.596,0.325 -1.269,0.69 -2.021,1.094 -0.752,0.404 -1.61,0.768 -2.575,1.095 -0.966,0.324 -2.065,0.487 -3.3,0.487 -2.132,0 -3.719,-0.454 -4.763,-1.363 -1.043,-0.91 -1.566,-2.138 -1.566,-3.687 0,-0.987 0.315,-1.807 0.943,-2.457 0.628,-0.651 1.453,-1.212 2.474,-1.684 1.022,-0.471 2.189,-0.904 3.502,-1.295 1.313,-0.394 2.653,-0.832 4.023,-1.314 1.369,-0.482 2.711,-1.05 4.023,-1.7 1.313,-0.652 2.48,-1.482 3.501,-2.491 1.021,-1.01 1.847,-2.239 2.475,-3.687 0.628,-1.447 0.943,-3.193 0.943,-5.235 0,-2.267 -0.394,-4.388 -1.179,-6.363 -0.786,-1.975 -1.925,-3.698 -3.417,-5.168 -1.493,-1.469 -3.333,-2.625 -5.521,-3.467 -2.189,-0.842 -4.675,-1.263 -7.457,-1.263 -1.527,0 -3.081,0.157 -4.663,0.472 -1.582,0.314 -3.115,0.758 -4.596,1.33 -1.481,0.572 -2.873,1.251 -4.174,2.036 -1.303,0.786 -2.435,1.661 -3.4,2.626 l 3.366,5.319 c 0.247,0.405 0.595,0.73 1.044,0.977 0.448,0.247 0.931,0.37 1.447,0.37 0.674,0 1.353,-0.213 2.037,-0.64 0.685,-0.426 1.459,-0.897 2.324,-1.414 0.863,-0.516 1.856,-0.987 2.979,-1.414 1.122,-0.427 2.445,-0.64 3.973,-0.64 2.064,0 3.669,0.456 4.813,1.365 1.146,0.908 1.718,2.35 1.718,4.326 0,1.144 -0.315,2.075 -0.943,2.794 -0.628,0.718 -1.454,1.312 -2.474,1.784 -1.023,0.472 -2.184,0.887 -3.485,1.246 -1.302,0.359 -2.637,0.757 -4.006,1.194 -1.369,0.439 -2.705,0.977 -4.007,1.617 -1.302,0.639 -2.463,1.481 -3.485,2.525 -1.021,1.043 -1.845,2.345 -2.474,3.905 -0.628,1.56 -0.943,3.485 -0.943,5.774 0,1.84 0.371,3.636 1.112,5.386 0.74,1.751 1.829,3.311 3.265,4.68 1.436,1.369 3.199,2.463 5.286,3.282 2.087,0.82 4.477,1.23 7.17,1.23 1.504,0 2.969,-0.118 4.394,-0.354 1.426,-0.236 2.778,-0.584 4.058,-1.044 1.279,-0.46 2.473,-1.009 3.585,-1.649 C 0.96,6.817 1.953,6.093 2.828,5.285 Z"
             style="fill:#ffffff;fill-opacity:1;fill-rule:nonzero;stroke:none"
             id="path71"
             inkscape:connector-curvature="0" /></g><path
           d="m 407.99,49.591 h 7.224 V 0.539 h -7.224 z"
           style="fill:#ffffff;fill-opacity:1;fill-rule:nonzero;stroke:none"
           id="path73"
           inkscape:connector-curvature="0" /><path
           d="m 399.808,49.591 h 3.881 V 0.539 h -3.881 z"
           style="fill:#ffffff;fill-opacity:1;fill-rule:nonzero;stroke:none"
           id="path75"
           inkscape:connector-curvature="0" /><g
           id="g77"
           transform="translate(384.0898,7.4602)"
           style="fill:#ffffff"><path
             d="m 0,0 c -3.367,0 -6.195,2.761 -6.195,6.194 0,3.3 2.828,6.128 6.195,6.128 3.502,0 6.263,-2.828 6.263,-6.128 C 6.263,2.761 3.502,0 0,0 m 0,21.884 c -3.367,0 -6.195,2.761 -6.195,6.195 0,3.3 2.828,6.128 6.195,6.128 3.502,0 6.263,-2.828 6.263,-6.128 0,-3.434 -2.761,-6.195 -6.263,-6.195"
             style="fill:#ffffff;fill-opacity:1;fill-rule:nonzero;stroke:none"
             id="path79"
             inkscape:connector-curvature="0" /></g></g></g></g></svg>